<svg viewBox="0 0 600 400" xmlns="http://www.w3.org/2000/svg">
  <defs>
    <linearGradient id="bgSand" x1="0%" y1="0%" x2="0%" y2="100%">
      <stop offset="0%" stop-color="#4A362A"/>
      <stop offset="100%" stop-color="#2B1B12"/>
    </linearGradient>
    <linearGradient id="breadTop" x1="0%" y1="0%" x2="0%" y2="100%">
      <stop offset="0%" stop-color="#D9AE5C"/>
      <stop offset="100%" stop-color="#B8862E"/>
    </linearGradient>
  </defs>
  <rect width="600" height="400" fill="url(#bgSand)"/>
  <g transform="translate(300,215)">
    <ellipse cx="0" cy="90" rx="170" ry="20" fill="#000" opacity="0.18"/>
    <path d="M-160 40 Q-160 62 -130 62 L130 62 Q160 62 160 40 L152 20 L-152 20 Z" fill="#8F6720"/>
    <rect x="-155" y="0" width="310" height="24" fill="#6B7B4A"/>
    <path d="M-150 0 q10 -14 20 0 q10 -14 20 0 q10 -14 20 0 q10 -14 20 0 q10 -14 20 0 q10 -14 20 0 q10 -14 20 0 q10 -14 20 0"
          fill="none" stroke="#6B7B4A" stroke-width="10" stroke-linecap="round" transform="translate(0,-4)"/>
    <rect x="-155" y="-22" width="310" height="20" rx="4" fill="#B23A2E"/>
    <circle cx="-110" cy="-12" r="9" fill="#D9AE5C" opacity="0.5"/>
    <circle cx="-40" cy="-12" r="9" fill="#D9AE5C" opacity="0.5"/>
    <circle cx="40" cy="-12" r="9" fill="#D9AE5C" opacity="0.5"/>
    <circle cx="110" cy="-12" r="9" fill="#D9AE5C" opacity="0.5"/>
    <path d="M-170 -40 Q0 -95 170 -40 L165 -22 Q0 -60 -165 -22 Z" fill="url(#breadTop)"/>
    <g fill="#F3ECDC" opacity="0.85">
      <circle cx="-90" cy="-58" r="3"/>
      <circle cx="-20" cy="-75" r="3"/>
      <circle cx="55" cy="-68" r="3"/>
      <circle cx="115" cy="-50" r="3"/>
      <circle cx="10" cy="-55" r="3"/>
    </g>
  </g>
  <text x="300" y="380" text-anchor="middle" font-family="Georgia, serif" font-size="15"
        letter-spacing="4" fill="#B8862E">SANDWICHES</text>
</svg>
